<svg xmlns="http://www.w3.org/2000/svg" width="124" height="124" viewBox="0 0 124 124">
  <rect x="4" y="4" width="116" height="116" rx="20" fill="#0b0b0b"/>

  <g fill="#ffffff">
    <rect x="22" y="18" width="80" height="52" rx="8"/>

    <rect x="28" y="24" width="7" height="40" rx="2.5" fill="#0b0b0b"/>
    <rect x="91" y="24" width="7" height="40" rx="2.5" fill="#0b0b0b"/>

    <rect x="38" y="24" width="11" height="11" rx="2.5" fill="#0b0b0b"/>
    <rect x="51" y="24" width="11" height="11" rx="2.5" fill="#0b0b0b"/>
    <rect x="64" y="24" width="11" height="11" rx="2.5" fill="#0b0b0b"/>
    <rect x="77" y="24" width="11" height="11" rx="2.5" fill="#0b0b0b"/>

    <rect x="38" y="38" width="11" height="11" rx="2.5" fill="#0b0b0b"/>
    <rect x="51" y="38" width="11" height="11" rx="2.5" fill="#0b0b0b"/>
    <rect x="64" y="38" width="11" height="11" rx="2.5" fill="#0b0b0b"/>
    <rect x="77" y="38" width="11" height="11" rx="2.5" fill="#0b0b0b"/>

    <rect x="38" y="52" width="11" height="11" rx="2.5" fill="#0b0b0b"/>
    <rect x="51" y="52" width="11" height="11" rx="2.5" fill="#0b0b0b"/>
    <rect x="64" y="52" width="11" height="11" rx="2.5" fill="#0b0b0b"/>
    <rect x="77" y="52" width="11" height="11" rx="2.5" fill="#0b0b0b"/>

    <circle cx="13" cy="28" r="5.25"/>
    <circle cx="13" cy="44" r="5.25"/>
    <circle cx="13" cy="60" r="5.25"/>
    <circle cx="111" cy="28" r="5.25"/>
    <circle cx="111" cy="44" r="5.25"/>
    <circle cx="111" cy="60" r="5.25"/>

    <circle cx="16" cy="82" r="4.25"/>
    <circle cx="29" cy="82" r="4.25"/>
    <circle cx="42" cy="82" r="4.25"/>
    <circle cx="55" cy="82" r="4.25"/>
    <circle cx="68" cy="82" r="4.25"/>
    <circle cx="81" cy="82" r="4.25"/>
    <circle cx="94" cy="82" r="4.25"/>
    <circle cx="107" cy="82" r="4.25"/>
  </g>

  <text
    x="62"
    y="111"
    text-anchor="middle"
    font-family="Segoe UI, Arial, sans-serif"
    font-size="12"
    font-weight="600"
    fill="#ffffff">Loupedeck</text>
</svg>
